<?xml version="1.0" encoding="iso-8859-1"?>
<!-- Generator: Adobe Illustrator 16.0.0, SVG Export Plug-In . SVG Version: 6.00 Build 0)  -->
<!DOCTYPE svg PUBLIC "-//W3C//DTD SVG 1.1//EN" "http://www.w3.org/Graphics/SVG/1.1/DTD/svg11.dtd">
<svg version="1.1" id="&#xB808;&#xC774;&#xC5B4;_1" xmlns="http://www.w3.org/2000/svg" xmlns:xlink="http://www.w3.org/1999/xlink"
	 x="0px" y="0px" width="300px" height="300px" viewBox="0 0 300 300" style="enable-background:new 0 0 300 300;"
	 xml:space="preserve">
<rect x="58.564" y="58.564" transform="matrix(0.7071 -0.7071 0.7071 0.7071 -62.132 150)" style="fill:transparent;stroke:#000000;stroke-width:10;stroke-miterlimit:10;" width="182.873" height="182.873"/>
<g>
	<path d="M152.412,132.359c-2.88,0-5.016,0.36-6.408,1.08c-1.393,0.72-2.088,2.088-2.088,4.104c0,1.249,0.432,2.257,1.296,3.024
		c0.864,0.769,2.351,1.681,4.464,2.736l8.856,4.464c3.264,1.681,5.676,3.625,7.236,5.832c1.56,2.208,2.34,5.111,2.34,8.712
		c0,4.368-1.165,7.549-3.492,9.54c-2.329,1.992-5.82,3.204-10.476,3.636v8.353h-6.768v-8.064c-1.825-0.097-4.201-0.349-7.128-0.756
		c-2.929-0.407-5.713-0.947-8.352-1.62v-9.433c2.976,0.913,6.059,1.621,9.252,2.125c3.191,0.504,5.508,0.756,6.948,0.756
		c2.976,0,5.22-0.336,6.732-1.008s2.268-1.848,2.268-3.528c0-1.536-0.287-2.7-0.863-3.492s-1.561-1.548-2.952-2.269l-9.36-4.752
		c-2.689-1.391-4.8-2.699-6.336-3.923c-1.537-1.224-2.712-2.675-3.528-4.356c-0.816-1.68-1.224-3.744-1.224-6.192
		c0-4.655,1.188-8.016,3.564-10.08c2.376-2.063,6.036-3.312,10.98-3.744v-7.344h6.768v7.2c1.729,0.097,3.719,0.313,5.976,0.648
		c2.256,0.336,4.392,0.792,6.408,1.368v8.856c-1.296-0.479-3.589-0.911-6.876-1.296
		C156.359,132.552,153.948,132.359,152.412,132.359z"/>
</g>
<g>
	<path d="M168.108,111.875h13.824V97.979h8.641v13.896h13.896v8.64h-13.896v13.824h-8.641v-13.824h-13.824V111.875z"/>
</g>
</svg>
