<svg xmlns="http://www.w3.org/2000/svg" viewBox="0 0 66 66" x="0px" y="0px"><path fill="#fff" d="M569,418 C569,417.447715 569.447715,417 570,417 C570.552285,417 571,417.447715 571,418 L571,482 C571,482.552285 570.552285,483 570,483 C569.447715,483 569,482.552285 569,482 L569,418 Z M559,428 C559,427.447715 559.447715,427 560,427 C560.552285,427 561,427.447715 561,428 L561,472 C561,472.552285 560.552285,473 560,473 C559.447715,473 559,472.552285 559,472 L559,428 Z M579,428 C579,427.447715 579.447715,427 580,427 C580.552285,427 581,427.447715 581,428 L581,472 C581,472.552285 580.552285,473 580,473 C579.447715,473 579,472.552285 579,472 L579,428 Z M549,438 C549,437.447715 549.447715,437 550,437 C550.552285,437 551,437.447715 551,438 L551,462 C551,462.552285 550.552285,463 550,463 C549.447715,463 549,462.552285 549,462 L549,438 Z M589,438 C589,437.447715 589.447715,437 590,437 C590.552285,437 591,437.447715 591,438 L591,462 C591,462.552285 590.552285,463 590,463 C589.447715,463 589,462.552285 589,462 L589,438 Z M539,448 C539,447.447715 539.447715,447 540,447 C540.552285,447 541,447.447715 541,448 L541,452 C541,452.552285 540.552285,453 540,453 C539.447715,453 539,452.552285 539,452 L539,448 Z M599,448 C599,447.447715 599.447715,447 600,447 C600.552285,447 601,447.447715 601,448 L601,452 C601,452.552285 600.552285,453 600,453 C599.447715,453 599,452.552285 599,452 L599,448 Z" transform="translate(-539 -417)"/></svg>